<?xml version="1.0" encoding="utf-8"?>
<!-- Generator: Adobe Illustrator 16.0.0, SVG Export Plug-In . SVG Version: 6.00 Build 0)  -->
<!DOCTYPE svg PUBLIC "-//W3C//DTD SVG 1.1//EN" "http://www.w3.org/Graphics/SVG/1.1/DTD/svg11.dtd">
<svg version="1.1" id="Layer_1" xmlns="http://www.w3.org/2000/svg" xmlns:xlink="http://www.w3.org/1999/xlink" x="0px" y="0px"
	 width="1024px" height="1024px" viewBox="0 0 1024 1024" enable-background="new 0 0 1024 1024" xml:space="preserve">
<rect fill="none" width="1024" height="1024"/>
<g>
	<polygon points="1024,795 83,795 83,102 0,102 0,887 1024,887 	"/>
	<path d="M406.775,419.369l166.864,188.996l277.604-241.928l-9.729,93.347c-2.02,24.909,14.54,44.449,39.388,46.461
		c24.827,2.03,46.612-16.48,48.648-41.354l16.666-204.328c2.019-24.874-16.414-46.642-41.261-48.681l-203.894-16.607
		c-12.412-1.02-23.963,3.276-32.72,10.74c-8.848,7.5-14.559,18.609-15.531,31.064c-2.054,24.881,16.884,47.265,41.747,49.277
		l96.397,8.98L581.766,485.767L414.522,296.392L203.928,481.498l57.495,65.639L406.775,419.369z"/>
</g>
</svg>
